<svg clip-rule="evenodd" fill-rule="evenodd" height="512" stroke-linejoin="round" stroke-miterlimit="2" viewBox="0 0 267 267" width="512" xmlns="http://www.w3.org/2000/svg"><path d="m224.769 84.259c-.743-.112-1.489.186-1.951.779-.462.592-.57 1.388-.281 2.082 4.748 11.405 7.37 23.92 7.37 37.042s-2.622 25.636-7.37 37.041c-.289.694-.181 1.49.281 2.083.462.592 1.208.89 1.951.778l7.057-1.058c11.644-1.747 20.257-11.749 20.257-23.522 0-9.538 0-21.107 0-30.644 0-11.774-8.613-21.776-20.257-23.523 0 0-7.057-1.058-7.057-1.058z"/><path d="m44.13 87.12c.288-.694.181-1.49-.281-2.082-.463-.593-1.208-.891-1.952-.779l-7.056 1.058c-11.644 1.747-20.258 11.749-20.258 23.523v30.644c0 11.773 8.614 21.775 20.258 23.522 0 0 7.056 1.058 7.056 1.058.744.112 1.489-.186 1.952-.778.462-.593.569-1.389.281-2.083-4.748-11.405-7.37-23.919-7.37-37.041s2.622-25.637 7.37-37.042z"/><path d="m63.794 120.598h66.234c5.753 0 10.417-4.664 10.417-10.417v-60.17c0-3.926-3.183-7.109-7.108-7.109-.001 0-.004 0-.004 0-39.405 0-72.296 28.11-79.774 65.335-.002.009-.004.018-.005.027-.571 3.046.245 6.187 2.224 8.571 1.98 2.385 4.918 3.764 8.017 3.763z"/><path d="m148.843 58.143v52.038c0 5.753 4.664 10.417 10.417 10.417s28.355 0 43.609-.064c3.077 0 6.001-1.375 7.967-3.751 1.967-2.377 2.772-5.506 2.196-8.537-.002-.006-.003-.012-.004-.017-5.444-27.34-24.625-49.756-50.011-59.805-.006-.003-.013-.005-.019-.008-3.204-1.232-6.809-.806-9.638 1.138-2.829 1.945-4.518 5.158-4.517 8.59z"/><path d="m151.024 188.343-1.482 45.405c-.001.023-.001.046-.001.068 0 5.082 4.125 9.207 9.206 9.207s9.207-4.125 9.207-9.207c0-.022-.001-.045-.001-.068l-1.482-45.405c6.243-3.125 10.63-10.098 10.63-19.36 0-7.414-3.49-14.619-7.993-19.194-3.22-3.272-6.976-5.18-10.361-5.18-3.216 0-6.949 1.899-10.195 5.175-4.532 4.575-8.159 11.785-8.159 19.199 0 9.262 4.388 16.235 10.631 19.36z"/><path d="m99.846 189.755c.007.002.013.005.019.008 1.033.452 1.686 1.49 1.645 2.617v.016c-.297 10.502-1.368 40.429-1.368 40.429-.001.024-.001.049-.001.074 0 5.386 4.373 9.759 9.759 9.759s9.759-4.373 9.759-9.759c0-.025 0-.05-.001-.074l-1.447-40.441c-.041-1.143.61-2.195 1.646-2.671 1.957-.784 3.743-2 5.274-3.531 3.27-3.27 5.106-7.704 5.106-12.328v-23.688c0-3.268-2.653-5.921-5.921-5.921s-5.921 2.653-5.921 5.921v11.152c0 .71-.575 1.285-1.285 1.285h-.004c-.709 0-1.285-.575-1.285-1.285v-11.152c0-3.268-2.653-5.921-5.921-5.921s-5.921 2.653-5.921 5.921v11.152c0 .71-.575 1.285-1.285 1.285h-.004c-.71 0-1.285-.575-1.285-1.285v-11.152c0-3.268-2.653-5.921-5.921-5.921s-5.921 2.653-5.921 5.921v23.688c0 4.624 1.837 9.058 5.106 12.328 1.51 1.51 3.267 2.714 5.177 3.573z"/><path d="m102.104 219.959c.622.203 1.303.102 1.84-.274.536-.375.865-.98.888-1.634.316-9.1.687-20.008.843-25.537.1-2.813-1.532-5.417-4.12-6.56-1.453-.653-2.791-1.57-3.939-2.718-2.489-2.488-3.886-5.863-3.886-9.382 0-4.943 0-23.688 0-23.688 0-.969.786-1.755 1.754-1.755s1.755.786 1.755 1.755v11.152c0 3.011 2.44 5.452 5.451 5.452h.004c3.011 0 5.452-2.441 5.452-5.452v-11.152c0-.969.786-1.755 1.754-1.755s1.755.786 1.755 1.755v11.152c0 3.011 2.44 5.452 5.451 5.452h.004c3.011 0 5.452-2.441 5.452-5.452v-11.152c0-.969.786-1.755 1.754-1.755.969 0 1.755.786 1.755 1.755v23.688c0 3.519-1.398 6.894-3.886 9.382-1.128 1.127-2.437 2.032-3.89 2.613-.021.008-.042.017-.062.026-2.629 1.15-4.288 3.789-4.186 6.657l1.039 29.04c.035.991.764 1.82 1.743 1.981 5.37.887 10.884 1.349 16.504 1.349 6.533 0 12.921-.624 19.101-1.812.956-.184 1.657-1.005 1.689-1.978l1.023-31.346c1.166.255 2.37.387 3.601.387 1.232 0 2.436-.132 3.601-.387 0 0 .908 27.805.908 27.805.021.66.355 1.272.899 1.647s1.234.47 1.859.255c39.58-13.585 68.06-51.149 68.06-95.311 0-55.6-45.141-100.741-100.741-100.741s-100.74 45.141-100.74 100.741c0 44.702 29.179 82.643 69.511 95.797zm-1.339-4.862c-37.295-13.373-64.005-49.06-64.005-90.935 0-53.301 43.273-96.574 96.573-96.574 53.301 0 96.574 43.273 96.574 96.574 0 41.339-26.03 76.646-62.581 90.411.001 0-.902-27.676-.902-27.676-.023-.684-.379-1.313-.954-1.683-.574-.371-1.294-.436-1.926-.174-1.496.62-3.112.947-4.797.947-1.684 0-3.3-.327-4.797-.947-.631-.262-1.351-.197-1.926.174-.574.37-.931.999-.953 1.683l-1.057 32.401c-5.416.944-10.991 1.437-16.681 1.437-4.804 0-9.527-.351-14.144-1.03-.001 0-.978-27.321-.978-27.321-.041-1.143.61-2.195 1.646-2.671 1.957-.784 3.743-2 5.274-3.531 3.27-3.27 5.106-7.704 5.106-12.328v-23.688c0-3.268-2.653-5.921-5.921-5.921s-5.921 2.653-5.921 5.921v11.152c0 .71-.575 1.285-1.285 1.285h-.004c-.709 0-1.285-.575-1.285-1.285v-11.152c0-3.268-2.653-5.921-5.921-5.921s-5.921 2.653-5.921 5.921v11.152c0 .71-.575 1.285-1.285 1.285h-.004c-.71 0-1.285-.575-1.285-1.285v-11.152c0-3.268-2.653-5.921-5.921-5.921s-5.921 2.653-5.921 5.921v23.688c0 4.624 1.837 9.058 5.106 12.328 1.51 1.51 3.267 2.714 5.177 3.573.007.002.013.005.019.008 1.033.452 1.686 1.49 1.645 2.617v.016c-.14 4.964-.454 14.269-.745 22.701z"/><path d="m146.331 204.385.448-13.706.001.001c-6.229-4.194-10.553-11.815-10.553-21.697 0-8.542 4.144-16.861 9.365-22.131 4.154-4.194 9.039-6.409 13.155-6.409 4.324 0 9.217 2.244 13.331 6.423 5.187 5.27 9.19 13.577 9.19 22.117 0 9.882-4.324 17.503-10.552 21.696l.181 5.547c20.997-10.972 36.625-30.84 41.886-54.576.002-.008.004-.017.006-.026.636-3.06-.14-6.245-2.113-8.669s-4.933-3.831-8.059-3.829c-28.155 0-110.418 0-138.574.074-3.097 0-6.034 1.397-7.992 3.803-1.958 2.407-2.728 5.567-2.096 8.605.001.007.003.015.005.022 5.328 24.286 21.534 44.52 43.242 55.324.044-1.401.084-2.68.116-3.79-2.051-1.027-3.943-2.384-5.595-4.036-4.051-4.051-6.327-9.545-6.327-15.274v-23.688c0-5.568 4.52-10.088 10.088-10.088 2.823 0 5.377 1.162 7.208 3.036 1.831-1.874 4.385-3.036 7.208-3.036s5.377 1.162 7.208 3.036c1.831-1.874 4.385-3.036 7.208-3.036 5.568 0 10.088 4.52 10.088 10.088 0 0 0 24.793 0 23.688 0 5.729-2.276 11.223-6.327 15.274-1.67 1.67-3.585 3.037-5.669 4.016l.415 11.602c3.44.445 6.949.675 10.51.675 4.424 0 8.765-.354 12.998-1.036z"/></svg>