<svg height="512" viewBox="0 0 511.63 510.57" width="512" xmlns="http://www.w3.org/2000/svg"><g id="Layer_2" data-name="Layer 2"><g id="compass"><path d="m179.34 354.24c-2.61 2.18-5.36 4.24-8.21 6.2l46.27 47.56 24.45-27.94-46.72-42.84a89.68 89.68 0 0 1 -15.79 17.02z"/><path d="m150.21 371.87c.19-.09.32-.17.41-.22-.13.08-.27.15-.41.22z"/><path d="m255.46 421.81 12.93-13.58-12.46-13.83-13.31 15.2z"/><path d="m293.59 358.27-23.7 21.73 14.4 16a123 123 0 0 1 9.3-37.73z"/><path d="m156.85 131.07a122.8 122.8 0 0 1 5.1-21.84c11.65-34.65 34.87-32.94 47.68-28.84 19.21 6.16 75.53 4.44 92.87-.14 15.68-4.15 36.6-2.48 47.18 29 .49 1.47.94 2.94 1.37 4.41 2.15-15.79 2.54-34.6-1.27-59-3.34-21.32-8.35-39-21.12-54.63-14.17 8.92-29.9 7.21-42.85 5.81-1.47-.16-2.92-.32-4.36-.46-45.62-4.48-78.32 6.47-102.91 34.43-2.36 2.67-4.56 5.09-6.69 7.43-14.09 15.49-20.52 22.55-19.54 46.66a267.19 267.19 0 0 0 4.54 37.17z"/><path d="m229.43 424.68-4.11 4.7a10 10 0 0 1 -7.27 3.42h-.26a10 10 0 0 1 -7.18-3l-57.53-59.18c-.84.38-1.67.77-2.52 1.13l-.44.19h-.09l-8 3.8c-6.76 3.2-13.76 6.52-20.6 9.81-13.31 6.45-29.54 11.45-45.24 16.37-14.39 4.48-29.27 9.08-40.86 14.53-8.15 3.81-14.72 9.75-20.08 18.16-6.09 9.55-10.12 21-13 37.1-.69 3.57-1.61 22.38-2.25 38.86h214.65l28.88-72.48z"/><path d="m172.82 246.2c3.83 14.66 16.06 25.68 29 37.35l3.76 3.4a2.08 2.08 0 0 0 .21.21l.26.27a6 6 0 0 1 .42.46l.21.26c.13.17.27.34.39.52s.11.18.17.26l.34.56.15.3a5.77 5.77 0 0 1 .27.56 3.68 3.68 0 0 1 .15.35c.07.18.14.36.2.54s.08.27.11.41.1.35.14.53.06.28.08.43.06.36.09.54 0 .28 0 .42v.58.21a73.45 73.45 0 0 1 -4.15 24.52l51.11 46.87 51.11-46.86a73.17 73.17 0 0 1 -4.14-24.53c0-.08 0-.15 0-.22v-.55c0-.15 0-.3 0-.45s.05-.34.08-.51l.09-.46c0-.17.08-.34.13-.5s.08-.29.13-.44.12-.34.18-.51.1-.26.16-.38.17-.36.26-.54l.16-.32.33-.53.19-.29c.11-.17.24-.33.37-.5l.23-.27a5.6 5.6 0 0 1 .4-.45l.28-.28.2-.21 3.76-3.4c12.94-11.67 25.17-22.69 29-37.35a100.27 100.27 0 0 1 21.3-41.12c10.39-12.39 10.49-18.19 10.05-20.1-.65-2.85-4.24-5.15-7.44-6.68-1 .81-2.78 3.56-4 5.42-1.05 1.61-2.25 3.43-3.61 5.26l-.16.23c-.08.11-.18.22-.26.32s-.12.16-.19.23a9.14 9.14 0 0 1 -1.27 1.22l-.16.13-.54.39-.24.15-.51.31-.27.14a5.69 5.69 0 0 1 -.56.26l-.24.11c-.26.11-.53.2-.8.29l-.26.07-.6.15-.31.06c-.21 0-.41.07-.62.09h-.26a9 9 0 0 1 -1 0h-.34q-.36 0-.72-.06h-.26c-.24 0-.48-.08-.72-.13l-.24-.05c-.25-.06-.49-.13-.73-.21h-.05l-.39-.15-.45-.18-.37-.17-.45-.24-.32-.18-.54-.35-.19-.13c-.23-.17-.46-.36-.68-.55l-.16-.15c-.17-.15-.33-.3-.48-.46l-.2-.22-.39-.46-.19-.24c-.13-.17-.25-.35-.36-.52l-.14-.21c-.15-.24-.29-.49-.42-.74a2.55 2.55 0 0 1 -.13-.29c-.08-.17-.16-.34-.23-.51s-.09-.23-.13-.35l-.17-.5c0-.12-.07-.24-.1-.36s-.1-.42-.14-.64a1.55 1.55 0 0 1 -.05-.23 8.65 8.65 0 0 1 -.1-.89c0-.09 0-.18 0-.27s0-.29 0-.44c0-2.75 0-5.46 0-8.15 0-22.19-.08-41.35-6.19-59.49-5.71-17-12.79-18.75-23.1-16-20.31 5.39-80.57 7.39-104.05-.16-7.84-2.51-16.05-3.33-22.6 16.16-6.11 18.13-6.14 37.27-6.19 59.43v8.06.11a10 10 0 0 1 -17.81 6.27l-.34-.45-.14-.18c-1.31-1.77-2.46-3.54-3.48-5.1-1.22-1.86-3-4.6-4-5.41-.73.35-1.39.7-2 1l-.34.19c-3.09 1.83-4.84 3.75-5.18 5.71s0 7.76 10.11 19.86a100.41 100.41 0 0 1 21.27 41.1z"/><path d="m510 477a125 125 0 0 1 -34.53 33.53h36.21c-.53-12.28-1.17-25.91-1.68-33.53z"/><path d="m236.2 510.57h37.91l-18.95-47.57z"/><path d="m511.52 416.5h-11.24a10 10 0 1 1 0-20h11.24a104.26 104.26 0 0 0 -93.59-93.59v11.24a10 10 0 1 1 -20 0v-11.25a104.26 104.26 0 0 0 -93.59 93.59h11.24a10 10 0 1 1 0 20h-11.25a104.26 104.26 0 0 0 93.59 93.59v-11.23a10 10 0 1 1 20 0v11.24a104.26 104.26 0 0 0 93.6-93.59zm-148.52 48.06a10 10 0 0 1 -13.17-13.17l29.68-68.1a.31.31 0 0 0 0-.1c.09-.19.19-.37.29-.56s.18-.35.28-.52.23-.33.34-.5a4.34 4.34 0 0 1 .35-.49c.12-.16.26-.31.39-.46s.26-.3.41-.45.29-.27.44-.4.3-.27.46-.39a4.34 4.34 0 0 1 .49-.35c.17-.12.33-.24.5-.34l.52-.28c.19-.1.37-.2.57-.29l.09-.05 68.1-29.68a10 10 0 0 1 13.26 13.17l-29.68 68.1a.41.41 0 0 0 -.05.09c-.09.2-.19.38-.29.57s-.18.35-.28.52-.22.33-.34.5a4.34 4.34 0 0 1 -.35.49c-.12.16-.26.31-.39.46a5.62 5.62 0 0 1 -.41.44c-.14.15-.29.27-.44.41s-.3.27-.46.39-.32.23-.49.35-.33.24-.5.34l-.52.28c-.19.1-.37.2-.57.29h-.09z"/><path d="m406.18 390.59 17.65 17.65 13.63-31.29z"/><path d="m378.38 436.04 31.29-13.65-17.65-17.64z"/><path d="m285.59 427.3-3.76-4.17-14.83 15.57 28.64 71.87h44.76a124.33 124.33 0 0 1 -54.81-83.27z"/></g></g></svg>