<?xml version="1.0"?>
<svg xmlns="http://www.w3.org/2000/svg" id="Layer_4_copy" data-name="Layer 4 copy" viewBox="0 0 64 64" width="512" height="512"><path d="M61.2,37.12c.2,2-.55,4.41-2.94,6.85l-.79,1H59a1,1,0,0,0,.69-.27l4-3.8a1,1,0,0,0,0-1.45Z"/><rect x="8" y="51" width="2" height="6" transform="translate(-35.55 22.18) rotate(-45)"/><rect x="6" y="53" width="6" height="2" transform="translate(-35.55 22.18) rotate(-45)"/><path d="M23,17H12a1,1,0,0,1,0-2H23a1,1,0,0,1,0,2Z"/><path d="M21,37H12a1,1,0,0,1,0-2h9a1,1,0,0,1,0,2Z"/><path d="M21,40H12a1,1,0,0,1,0-2h9a1,1,0,0,1,0,2Z"/><path d="M52,17H43a1,1,0,0,1,0-2h9a1,1,0,0,1,0,2Z"/><path d="M17,25l-5-5V31H56l-7-6Zm8,4H18V27h7Zm3,0H26V27h2Zm11,0H37V27h2Zm3,0H40V27h2Zm3,0H43V27h2Zm3,0H46V27h2Z"/><path d="M64,17.41a1,1,0,0,0-.31-.73l-3.24-3.08,3.24-3.08a1,1,0,0,0,0-1.45l-4-3.81A1,1,0,0,0,59,5H49v5a1,1,0,0,1,0,.28,5.15,5.15,0,0,1-9,1.79,5.11,5.11,0,0,1-8,0,5.11,5.11,0,0,1-8,0,5.15,5.15,0,0,1-9-1.79A1,1,0,0,1,15,10V5H1A1,1,0,0,0,.31,6.72L3.55,9.81.31,12.89a1,1,0,0,0,0,1.45l3.24,3.07L.31,20.49a1,1,0,0,0,0,1.45L3.55,25,.31,28.08a1,1,0,0,0,0,1.45l3.24,3.07L.31,35.68a1,1,0,0,0,0,1.45L3.55,40.2.31,43.27A1,1,0,0,0,1,45H18v6.63C22.66,46.46,28,40.9,37,40.9l1.13,0,10.11-7.35q.45-.31.89-.57H31.83l-5.39,4.19L24,34l1.33-1H12a2,2,0,0,1-2-2V20a2,2,0,0,1,3.41-1.41L17.83,23h7.65l1.39-3.23L34.41,23H49a2,2,0,0,1,1.3.48l7,6a2,2,0,0,1,.57,2.21,1.91,1.91,0,0,1-.1.17,6.07,6.07,0,0,1,1.34,1,7.27,7.27,0,0,1,1.84,3l2.72-2.59a1,1,0,0,0,0-1.45l-3.24-3.07,3.24-3.07a1,1,0,0,0,0-1.45l-3.24-3.07,3.24-3.07A1,1,0,0,0,64,17.41ZM52,20H43a1,1,0,0,1,0-2h9a1,1,0,0,1,0,2Z"/><path d="M57.71,34.29c-1.29-1.29-3.77-2.19-8.3.9L38.72,43c-8.61-.71-13.71,4-18.35,9H49.57l7.18-9.34C60.94,38.44,58.82,35.4,57.71,34.29Zm-2,5.41a1,1,0,0,1-1.41,0l-2-2a1,1,0,0,1,1.41-1.41l2,2A1,1,0,0,1,55.71,39.71Z"/><path d="M48,54H16a1,1,0,0,0-1,1v8a1,1,0,0,0,1,1H48a1,1,0,0,0,1-1V55A1,1,0,0,0,48,54Zm-4,6H42a1,1,0,0,1,0-2h2a1,1,0,0,1,0,2Z"/><path d="M17,2V9.85a3.17,3.17,0,0,0,6,0V2Zm4,8H19a1,1,0,0,1,0-2h2a1,1,0,0,1,0,2Z"/><path d="M25,2V9.85a3.17,3.17,0,0,0,6,0V2Zm4,8H27a1,1,0,0,1,0-2h2a1,1,0,0,1,0,2Z"/><path d="M33,2V9.85a3.17,3.17,0,0,0,6,0V2Zm4,8H35a1,1,0,0,1,0-2h2a1,1,0,0,1,0,2Z"/><path d="M41,2V9.85a3.17,3.17,0,0,0,6,0V2Zm4,8H43a1,1,0,0,1,0-2h2a1,1,0,0,1,0,2Z"/></svg>
