<svg id="Layer_1" enable-background="new 0 0 53 53" height="512" viewBox="0 0 53 53" width="512" xmlns="http://www.w3.org/2000/svg"><g id="_x33_"><path d="m9.0894165 32.9575119c-3.2799683 0-6.0100098 2.6199951-6.0100098 6 0 2.5499878 3.5500488 7.6400146 5.1900024 9.8900146.4100342.539978 1.2200317.539978 1.6199951 0 1.6500244-2.2800293 5.2000122-7.3600464 5.2000122-9.8900146.0000001-3.1400146-2.5700072-6-5.9999999-6zm-.0100098 7.6300049c-1.0599976 0-1.9099731-.8500366-1.9099731-1.9100342s.8499756-1.9199829 1.9099731-1.9199829 1.9200439.8599854 1.9200439 1.9199829-.8600463 1.9100342-1.9200439 1.9100342z"/><path d="m40.8994141 32.0175095h-1.8800049v.6199951c0 1.8400269-1.5 3.3400269-3.3399658 3.3400269h-2.2700195c-1.8400269 0-3.3400269-1.5-3.3400269-3.3400269v-.6199951h-6.5099487v.6199951c0 1.8400269-1.5 3.3400269-3.3400269 3.3400269h-2.2700195c-.5899658 0-1.1499634-.1600342-1.6300049-.4299927.4900513 1.039978.7700195 2.1899414.7700195 3.4099731 0 1.3800049-.5299683 3.9299927-4.9899902 10.2299805h13.9500122v-4c0-.5499878.4500122-1 1-1s1 .4500122 1 1v4h19.9199829c.9500122 0 1.5499878-1 1.0999756-1.8399658zm-12.8499756 5.9400024c0 .5599976-.4500122 1-1 1s-1-.4400024-1-1v-4c0-.5499878.4500122-1 1-1s1 .4500122 1 1z"/><path d="m49.1502686 7.1838303h-3.081543c-.4254761 0-.7703857.3449097-.7703857.7703247v7.0567017c0 .425415.3449097.7703247.7703857.7703247h.5404663v1.6933594h-3.3897705v-10.4170533c0-1.8200073-1.4899902-3.3099976-3.3099976-3.3099976h-25.9199829c-1.8300171 0-3.3099976 1.4899902-3.3099976 3.3099976-.0087891 9.1500854-.0098877 10.2595215-.0099487 10.364563v.0062866c0 .0072021-.000061.0211792-.000061.0462036h-3.3795776v-1.6933594h.5408936c.4254761 0 .7703857-.3449097.7703857-.7703247v-7.0567016c0-.425415-.3449097-.7703247-.7703857-.7703247h-3.081482c-.4254761 0-.7703857.3449097-.7703857.7703247v7.0567017c0 .425415.3449097.7703247.7703857.7703247h.5405884v2.6933594c0 .5522461.4472656 1 1 1h4.3895874v8.5429688h-.7300415c-.5499878 0-1 .4500122-1 1s.4500122 1 1 1h6.6550903v2.6192017c0 .7398071.6052856 1.3451538 1.3450928 1.3451538h2.2666016c.746521 0 1.3450928-.6053467 1.3450928-1.3451538v-2.6192017h10.5047606v2.6192017c0 .7398071.6052856 1.3451538 1.3450928 1.3451538h2.2666016c.746521 0 1.3450928-.6053467 1.3450928-1.3451538v-2.6192017h6.916626c.5499878 0 1-.4500122 1-1s-.4500122-1-1-1h-.7200317v-8.5429688h4.3897705c.5527229 0 1-.4477539 1-1v-2.6933594h.5410767c.425415 0 .7703247-.3449097.7703247-.7703247v-7.0567017c-.0000001-.4254151-.3449098-.7703247-.7703248-.7703247zm-32.0819703 18.7528686c-1.2788086 0-2.3111572-1.0322876-2.3111572-2.3110962 0-1.2711182 1.0323486-2.3111572 2.3111572-2.3111572 1.2711182 0 2.3110962 1.0400391 2.3110962 2.3111572 0 1.2788086-1.039978 2.3110962-2.3110962 2.3110962zm-2.3888549-8.7191772v-9.4700318h11.3711548v9.4700317h-11.3711548zm16.8242797 9.0778198h-9.1142578c-.5527344 0-1-.4477539-1-1s.4472656-1 1-1h9.1142578c.5527344 0 1 .4477539 1 1s-.4472656 1-1 1zm0-3.3393555h-9.1142578c-.5527344 0-1-.4477539-1-1s.4472656-1 1-1h9.1142578c.5527344 0 1 .4477539 1 1s-.4472656 1-1 1zm5.3518677 2.9807129c-1.2788086 0-2.3111572-1.0322876-2.3111572-2.3110962 0-1.2711182 1.0323486-2.3111572 2.3111572-2.3111572 1.2711182 0 2.3110962 1.0400391 2.3110962 2.3111572 0 1.2788086-1.039978 2.3110962-2.3110962 2.3110962zm2.3638306-8.7191772h-11.1688233v-9.4700318h11.1688232v9.4700318z"/><path d="m19.0369873 10.6952438c.390625-.3901367.390625-1.0234375 0-1.4140625s-1.0234375-.390625-1.4140625 0l-1.5068359 1.5063477c-.390625.3901367-.390625 1.0234375 0 1.4140625.1953125.1953125.4511719.2929688.7070313.2929688s.5117188-.0976563.7070313-.2929688z"/><path d="m22.0496826 10.4979782c-.390625-.390625-1.0234375-.390625-1.4140625 0l-3.3027344 3.3022461c-.390625.3901367-.390625 1.0234375 0 1.4140625.1953125.1953125.4511719.2929688.7070313.2929688s.5117188-.0976563.7070313-.2929688l3.3027344-3.3022461c.3906249-.3901367.3906249-1.0234375-.0000001-1.4140625z"/></g></svg>